<?xml version="1.0" encoding="utf-8"?>
<!-- Generator: Adobe Illustrator 26.1.0, SVG Export Plug-In . SVG Version: 6.00 Build 0)  -->
<svg version="1.1" id="Calque_1" xmlns="http://www.w3.org/2000/svg" xmlns:xlink="http://www.w3.org/1999/xlink" x="0px" y="0px"
	 viewBox="0 0 500 250" style="enable-background:new 0 0 500 250;" xml:space="preserve">
<style type="text/css">
	.st0{fill:#C01B28;}
	.st1{fill:#C22631;}
	.st2{fill:#BE1827;}
	.st3{fill:#C01C29;}
	.st4{fill:#BF1F2A;}
	.st5{fill:#C01C28;}
	.st6{fill:#BF1D29;}
	.st7{fill:#C32631;}
	.st8{fill:#BF1D2A;}
	.st9{fill:#C32934;}
	.st10{fill:#C11E2B;}
	.st11{fill:#C42C36;}
	.st12{fill:#C83A44;}
	.st13{fill:#CD4E58;}
	.st14{fill:#D36069;}
	.st15{fill:#FCF8F8;}
	.st16{fill:#FFFEFE;}
</style>
<g>
	<path class="st0" d="M202.3,143.1c-0.5-4-1.2-7.9-1.4-11.9c-0.3-5.5-0.2-10.9-0.2-16.4c0-2.2,0.4-4.4,0.7-7.1
		c-3.1,1.1-5.8,2-9.7,3.4c-1.5,0-4.4,0-7.7,0c-1.2-1.2-2.7-2.7-4.4-4.5c1.6-0.9,2.6-1.4,3.5-2c5.7,2.4,10.6-1.3,15.8-2.4
		c0.7-1,1.4-1.9,2.2-3c0-1.6,0-3.4,0-5.2c-0.2,0-0.3,0-0.5-0.1c-0.1,1-0.3,2.1-0.4,3.5c0-2.4,0.1-4.6,0-6.7c-0.1-0.9-0.6-1.7-1-2.6
		c0.1-0.3,0.1-0.5,0.2-0.8c-0.1,0-0.2,0-0.3-0.1c-0.1,0.2-0.1,0.4-0.2,0.6c-0.3-1.8-0.6-3.6-0.9-5.4c4.4-4.2,10.7-2.9,14.4,3
		c0,0.2-0.1,0.4-0.1,0.7c0.1,0,0.1,0,0.2,0c0.1-0.1,0.1-0.3,0.2-0.4c0.4,3.2,0.8,6.4,1.2,9.6c4.1,0,8,0,11.8,0
		c-0.2,0.1-0.4,0.1-0.1,0c-0.1,0.2,0,0.1,0-0.1c3.8,1,7,3,9,6.6c-0.5,0.8-1.1,1.6-1.8,2.6c-0.9,0-2,0.3-2.8-0.1
		c-5.1-2.7-10.2-1.8-15.3-0.4c-2.2,11.6,0.3,41.4,4,45.9c2.8-1.8,4.1-4.7,5.5-7.6c3-6,3.1-12.8,5.1-19c2.4-7.5,5.4-14.8,9-21.8
		c2.7-5.2,8-7.9,13.8-8c5.7-0.1,12.1,3.7,13.5,11.8c0.4,2.2,0.1,4.5,0.1,7c5.6,4,4.1,10.4,4.8,16.1c0.2,1.7,0.5,3.3,0.7,4.9
		c0.3,0,0.7,0.1,1,0.1c1.1-3.3,2.4-6.6,3.3-9.9c1.3-4.6,2.5-9.3,3.4-14c0.5-2.5,0.3-5.1,0.2-7.6c-0.3-9.3-0.5-18.7-1-28
		c-0.2-3.6-1.2-7.1-2-11.4c1.4-3.2,5.2-1.4,8.1-2.3c5.9,4.2,5.7,10.6,6.1,16.6c0.4,5.9,0.6,11.9,0.9,17.7c1.6-2.4,3.1-5,5-7.3
		c1.4-1.7,3.3-3.2,5.2-4.2c6.1-3.3,12.4-1.4,15,5c1.4,3.5,2,7.6,2.1,11.5c0,4.6-1,9.2-1.5,13.9c0.3-0.3,0.9-0.5,1.1-0.9
		c0.9-1.5,1.6-3,2.5-4.5c4.2-7,5.1-14.5,4.6-22.5c-0.7-10.9,0.4-21.7,4.7-31.9c1-2.4,2.7-4.6,4.5-6.4c4.5-4.3,10-2.6,12.5,3.5
		c2.4,5.7,2.5,11.5,1.1,17.5c-1.9,8-5.5,15.2-9.6,22.2c-1.1,1.9-1.7,3.8-1.5,6.1c0.3,3.3-0.1,6.8,0.1,10.1c0.2,2.3,1,4.6,1.5,6.9
		c0.5,1,0.9,2.1,1.6,2.9c0.9,1.1,1.9,2.5,3.6,1.1c1.1-0.8,2.6-1.5,3.2-2.6c1.5-2.7,2.7-5.6,3.8-8.5c2.6-6.8,2.7-14.2,4.1-21.2
		c1.6-8.4,3-17.1,10.6-22.7c8.8-6.5,19.9-3.6,23.1,6.6c1.6,5.2,1,10.7-1.6,15.6c-2.7,5-5.8,7.9-13.6,13.6c0.7,2.9,1.5,5.9,2.2,8.6
		c3.6,0.5,5.1-0.5,6.6-3.3c3.8-7.3,5.8-15.1,7.6-23c0.1-0.5,0.3-0.9,0.4-1.3c0.5,0,1.1,0.1,1.6,0.1c0.1,1,0.2,2.1,0.3,3.1
		c0.1,0,0.3,0,0.4,0c0.6-2.9,1.2-5.8,1.8-8.8c0,0,0,0.1,0,0.1c1,0.2,2,0.4,3.4,0.6c-2.8,11.8-4.1,23.7-10.6,33.9
		c-3.5,5.4-8.4,8.9-14.9,9.5c-4.6,0.4-8.2-2-10.7-5.7c-1.9-2.8-3.1-6-4.4-8.6c-1.8,4.5-3.9,9.5-5.9,14.6
		c-3.2,7.7-13.4,10.9-19.1,2.3c-2-3-3.1-6.5-4.6-9.8c-0.3-0.8-0.7-1.5-1.2-2.9c-0.8,1.5-1.5,2.4-1.7,3.3
		c-1.8,6.6-6.1,11.5-10.5,16.4c-3.6,4.1-7.1,8.3-10.7,12.5c-0.5,0.5-1,1-2,1.2c0.5-1.2,1-2.4,1.6-4c-5.4,2-10.6,4.7-15.8,0.6
		c-4.8-3.8-5.3-9.5-6.4-15.8c-0.5,1.4-0.8,2-0.9,2.6c-0.1,0.7,0.2,1.5,0,2.2c-1.6,4.3-3.3,8.5-5.1,12.8c-0.3,0.8-0.9,1.4-1.5,2
		c-5.1,5.6-10.6,4.9-13.9-1.9c-1.1-2.2-1.7-4.5-2.8-7.6c-1.9,11.1-7.2,18.7-18.4,21.4c-5-1.8-5-1.8-8.5-8.4
		c-1.3,2.7-2.3,5.5-3.8,8.1c-3.1,5.5-9.6,8.5-15.4,6.4c-2.3-0.8-4.6-3.3-5.5-5.5C203.3,150.7,203,146.8,202.3,143.1
		c0.2,0.1,0.5,0.2,0.9,0.4c-0.1-2.6-0.2-5.1-0.3-7.5c-0.1-2.3-0.3-4.7-0.4-7c-0.3,0-0.5,0-0.8,0.1
		C201.9,133.7,202.1,138.4,202.3,143.1z M339.2,73.3c-1.1,0.1-2.1,0.3-3.1,0.4c0,2.9,0,5.8,0,8.7c0.2,0,0.5,0,0.7,0
		c0.1-0.7,0.1-1.4,0.2-1.6c1.1-1,2-1.7,2.9-2.5c-0.3-0.1-0.5-0.3-0.8-0.4c0.3-1.5,0.5-3,0.8-4.5c0.6-1.8,1.2-3.6,2-5.8
		c0-0.2-0.2-0.9-0.4-1.6c0.6-0.3,1.1-0.5,0.9-0.4c0-2.8,0-5.3,0-7.8c0.2,0,0.4,0,0.5,0c-0.4-1.5-0.8-2.9-1.2-4.4
		c-0.3,0-0.6-0.1-0.9-0.1c-1.1,3.4-2.2,6.9-3.3,10.1C338.2,66.7,338.7,70,339.2,73.3z M297.7,129.3l0,0.1L297.7,129.3
		c1.4-3,2.7-6.2,4.3-9.9c0-3.6,0-8,0-12.7c1.3,0.7,2,1.1,2.6,1.4c0-5,0-10,0-15c-0.3,0-0.5,0-0.8,0c-0.9-0.5-1.7-1.1-2.9-1.8
		c-0.9,0.8-1.9,1.5-2.8,2.3c0.2,0.2,0.4,0.3,0.6,0.5c-1.5,2.1-3.1,4.2-4.6,6.3c0.3,0.1,0.5,0.1,0.8,0.2c-0.8,3.3-1.6,6.6-2.4,9.9
		c0.1,0,0.3,0.1,0.4,0.1c-0.4,0.6-0.9,1.1-1.3,1.7c0.3,1,0.6,1.9,0.9,2.8c-0.6,0.4-1.1,0.7-1.8,1.2c3.1,1.6,1.6,3.7,0.4,6.2
		c0.9-0.3,1.4-0.5,2.2-0.8c-1.6,3.8-1.7,7.2,0.2,10.6C295.2,131.1,296.5,130.2,297.7,129.3z M251.6,128.9c2.8-0.3,1.9-2.7,2.9-4.6
		c-0.9,0.3-1.4,0.5-1.8,0.6c0-0.4,0-0.8,0.1-1.1c1-2.5,2-4.9,1-7.8c-0.3-0.8,1.2-2.7,2.3-3.3c1.5-0.8,3.3-0.9,5.3-1.4
		c-0.8-4.4-3.5-7-7.7-8.4c-1.2,0.5-2.5,1.1-3.8,1.7c0-0.3,0-0.7,0-1c-0.3-0.1-0.6-0.3-0.9-0.4c-1.8,3.4-3.7,6.9-5.5,10.3
		c0.2,0.1,0.5,0.3,0.7,0.4c0.6-0.8,1.2-1.7,1.8-2.5c-0.1,0.9-0.2,1.7-0.4,2.6c-1.2,7.3-2.6,14.6-3.5,22c-0.3,2.1,0.8,4.5,1.3,6.6
		c4.2-0.3,7.5-4.5,8.8-10.5c-0.4-0.6-0.7-1.3-1-1.9c0.4,0,0.8,0,1.2,0c0-0.1,0-0.3,0-0.4c-0.3-0.1-0.6-0.1-1-0.2
		C251.4,129.2,251.5,129,251.6,128.9z M370.2,92.5c4.5-2,7.6-4.2,8.7-8.2c1.1-0.6,2-1.1,2.6-1.4c0.6-3.8,1.1-7.2,1.6-10.6
		c-0.2,0.1-0.5,0.2-0.7,0.3c-0.5-1-1-1.9-1.5-2.8c-0.1,0.1-0.4,0.4-0.9,0.8c-0.2-0.7-0.4-1.3-0.7-2c-0.9,0.5-1.6,0.9-2.2,1.2
		c-1,2.9-1.9,5.6-3.1,9.1c-0.2,0.2-0.8,1-1.4,1.7c0.4,2.8,0.8,5.5,1.3,8.6c-1.1,0-2.1,0-3.1,0C370.6,90,370.5,90.9,370.2,92.5z
		 M326.5,107.1c-0.1,0-0.2,0-0.3,0c-0.1,0.5-0.1,1-0.2,1.5c0.2,0,0.3,0,0.5,0C326.5,108.1,326.5,107.6,326.5,107.1z"/>
	<path class="st1" d="M106.3,197c0.2-0.5,0.3-1.3,0.7-1.4c1-0.4,2.1-0.5,3.2-0.7c0-0.2,0-0.5,0-0.7c-0.7,0-1.5,0-2.2,0
		c-7.4-0.1-14.8-0.3-22.1-0.4c-0.5,0-1.1,0.3-1.6,0.5c0,0-0.2-0.2-0.2-0.2c-0.4-0.3-0.7-0.6-1.1-0.8c-0.1,0-0.4,0.5-0.6,0.8
		c-0.3-0.1-0.5-0.2-0.8-0.3c-1.3-0.6-2.6-1.3-3.8-1.9c-0.3-0.2-0.7-0.3-1-0.5c-13.7-4.3-25.2-11.8-34.5-22.8
		c-1.6-1.9-3.2-3.7-4.9-5.5c-1.2-1.4-2.4-2.8-3.5-4.2c-0.1-0.1,0.4-0.6,0.7-0.9c-0.4-0.6-0.8-1.2-1.2-1.7c-0.8-2-1.7-4-2.5-5.9
		c-0.1-0.4-0.2-0.8-0.3-1.2c-0.2-0.4-0.3-0.8-0.5-1.2c-1.4-4.9-2.8-9.7-4.1-14.6c-2.9-19.5,1.1-37.5,12-53.9c-0.7-0.6-1.2-1-1.7-1.4
		c0-0.2,0-0.5,0-0.7c0.3-0.6,0.5-1.3,0.8-2c0.6-0.2,1.3-0.4,2-0.6c0.1,0.2,0.2,0.4,0.4,0.7c0.1,0.4,0.2,0.7,0.3,1.1
		c-0.4,0.5-0.8,1.1-1.2,1.6c0.2,0.1,0.5,0.3,0.7,0.4c0.3-0.7,0.7-1.4,1-2.1c0.4-0.7,0.8-1.5,1.2-2.2c0,0,0,0,0,0
		c1.2-1.2,2.5-2.4,3.6-3.6c0.2-0.2-0.1-0.8-0.2-1.2c0.6-0.6,1.3-1.3,1.9-1.9c0.5,0,1.2,0.2,1.5,0c1.3-1.1,2.5-2.3,3.7-3.4
		c0.1-0.1,0.2-0.1,0.2-0.3c0.8-0.7,1.5-1.3,2.3-2l0,0c2.2-1.5,4.4-3,6.5-4.5c0,0,0.3,0,0.3,0l0.3,0c0.3-0.2,0.6-0.4,0.9-0.6l0,0
		c4.1-1.7,8-3.6,12.2-5c20.1-6.7,39.7-4.9,58.5,4.7c0.3-0.1,0.6-0.3,0.9-0.4c-3.6-1.8-7.3-3.7-11.3-5.7c2.8,0.4,5.6,0.3,7.9,1.3
		c4.3,1.8,8.5,4,12.5,6.4c3.4,2,6.6,4.5,9.6,7.1c1.1,0.9,1.5,2.7,2.3,4.1c0.9,0,1.7,0,2.8,0c2.5,3.1,4.9,6.6,7.8,9.5
		c4.5,4.5,6.4,10,8.1,16.4c-1.9-1.1-3.3-1.9-4.7-2.7c0,2.3,0,4.3,0,6.3c0,0.6-0.1,1.1-0.1,1.7c0.3,1.1,0.5,2.2,0.8,3.4
		c0.1,0.4,0.3,0.8,0.4,1.2c0.2,0.1,0.4,0.3,0.6,0.4c0.4-0.2,0.8-0.4,1.2-0.6c0.5,3.2,1.1,6.5,1.6,9.7c-2.3,0-2,1.9-2.1,3.2
		c-0.2,2.8,0,5.6,0,8.4c0,0.5,0,1,0,1.5c-1.6,7-3.2,14-4.8,20.9c-0.1,0.2-0.2,0.4-0.3,0.6c0,0.2-0.1,0.4-0.1,0.6
		c-0.1,0.3-0.2,0.6-0.2,0.9c0.1,0,0.3,0.1,0.4,0.1c0.1-0.3,0.2-0.6,0.4-0.9c0.2,0,0.4,0,0.6,0c0.1,0.1,0.3,0.3,0.4,0.4
		c0.1,0.2,0.1,0.4,0.2,0.6c-1.5,2.9-3.1,5.7-4.6,8.6c-0.2,0-0.4,0-0.6,0c-0.2-0.2-0.4-0.4-0.7-0.7c0.1-0.2,0.1-0.3,0.2-0.5
		c0.2-0.4,0.3-0.8,0.5-1.2c2.2-1.2,2.6-3.1,2.8-5.2c-0.3-0.1-0.5-0.2-0.8-0.4c-0.8,1.9-1.7,3.7-2.5,5.6c-0.1,0.3-0.2,0.5-0.4,0.8
		c-0.1,0.3-0.2,0.6-0.3,0.8c-0.5,0.9-1,1.9-1.6,2.8l0,0c-0.5,0.6-1,1.3-1.5,1.9c-0.1,0.6-0.2,1.2-0.3,1.9c0.1,0.3,0.3,0.7,0.4,1
		c0,0-0.1,0.2-0.1,0.2c-1.4,0.7-2.8,1.5-4.2,2.2c-0.2,0.3-0.3,0.6-0.5,0.8c-0.1,0-0.2,0.1-0.2,0.2c-0.3,0.8-2.8,1.2-0.4,2.4
		c-0.7,0.7-1.3,1.3-2,2c-0.3-0.3-0.9-0.8-1-0.7c-0.7,0.6-1.3,1.2-1.9,1.9c-0.2,0.1-0.3,0.3-0.5,0.4c-0.9,0.8-1.7,1.5-2.6,2.3
		c-0.3,0.2-0.5,0.4-0.8,0.7c-1.9,1.3-3.8,2.7-5.9,4.1c0.3,0.5,0.6,1,0.9,1.5c-2.8,4.7-3.9,5.3-7.4,4.1c0-0.2,0-0.3,0-0.5
		c0.6-0.5,1.1-1,1.7-1.5c-0.1-0.2-0.3-0.4-0.4-0.6c-0.8,0.5-1.7,1-2.5,1.4c-0.2,0.1-0.4,0.1-0.6,0.2c-5.6,1.8-11.2,3.6-16.8,5.4
		c-0.4,0.1-0.7,0.2-1.1,0.3c0,0.2,0,0.3,0,0.5c0.3,0,0.6-0.1,0.9-0.1c1,0.1,2.1,0.1,3.1,0.2c0.1,1,0.2,2,0.3,3
		c-0.2,0-0.4,0.1-0.6,0.1c-0.2-2.8-1.9-1.6-3.6-1.3c0.6,0.7,1,1.2,1.3,1.6c-0.6,0.2-1.4,0.5-2.2,0.7c-1.5-0.2-3-0.3-4.5-0.5
		c0.5-0.1,1-0.1,1.5-0.2c0-0.1,0-0.2,0-0.4C107.8,197,107.1,197,106.3,197z M150.3,68.3c-0.3,0-0.6-0.1-1.4-0.2
		c0.6,0.5,0.8,0.6,1,0.8c0.2,0.2,0.4,0.4,0.6,0.6c0.3,0.1,0.5,0.3,0.8,0.4c0.1-0.1,0.1-0.2,0.2-0.3c-0.2-0.2-0.4-0.5-0.6-0.7
		C150.7,68.7,150.5,68.5,150.3,68.3z M137.7,183.3c-0.3,0.2-0.6,0.5-1,0.7c0.1,0.1,0.3,0.2,0.4,0.3
		C137.3,184,137.5,183.6,137.7,183.3C137.8,183.2,137.9,183.2,137.7,183.3C137.9,183,137.8,183.2,137.7,183.3z M161.6,84
		c0.6,1.1,1.2,2.2,1.8,3.4c0.2-0.1,0.5-0.2,0.7-0.3c-0.6-1.2-1.2-2.5-1.8-3.7c-0.9-1.4-1.7-2.8-2.6-4.2c-0.3,0.2-0.6,0.4-0.8,0.5
		C159.7,81.1,160.6,82.6,161.6,84z M27.4,121.2C26.9,157.6,56,191.9,98,192c40.2,0.1,70.9-32.2,70.9-70.7c0-39.2-32-70.7-71.5-70.6
		C59,50.7,27.3,82.7,27.4,121.2z M139.3,60.3c0.2-0.3,0.3-0.5,0.5-0.8c-1.8-1.1-3.6-2.2-5.4-3.3c-0.2,0.3-0.3,0.5-0.5,0.8
		C135.7,58.2,137.5,59.2,139.3,60.3z M153.2,71.2c-0.2,0.2-0.4,0.4-0.6,0.5c0.6,0.6,1.2,1.2,1.7,1.9c0.2-0.2,0.4-0.3,0.6-0.5
		C154.4,72.4,153.8,71.8,153.2,71.2z M157,77.2c0.2-0.2,0.5-0.5,0.7-0.7c-0.7-0.5-1.3-1-2-1.5c-0.1,0.1-0.2,0.2-0.3,0.3
		C156,75.9,156.5,76.5,157,77.2z M142,62.2c0.2-0.2,0.3-0.5,0.5-0.7c-0.7-0.4-1.4-0.9-2-1.3c-0.1,0.2-0.3,0.4-0.4,0.6
		C140.7,61.2,141.3,61.7,142,62.2z M157.9,76.8c-0.2,0.2-0.4,0.4-0.7,0.5c0.5,0.6,0.9,1.1,1.4,1.7c0.2-0.2,0.4-0.3,0.6-0.5
		C158.7,78,158.3,77.4,157.9,76.8z M144.4,63.9c0.1-0.2,0.2-0.4,0.4-0.6c-0.6-0.4-1.2-0.9-1.8-1.3c-0.1,0.2-0.3,0.4-0.4,0.7
		C143.1,63.1,143.7,63.5,144.4,63.9z M146.8,65.1c-0.1,0.2-0.3,0.3-0.4,0.5c0.4,0.4,0.8,0.7,1.3,1.1c0.1-0.2,0.3-0.3,0.4-0.5
		C147.6,65.8,147.2,65.5,146.8,65.1z M145.2,64.2c0.1,0,0.1,0,0.2,0c0-0.2,0-0.3,0-0.5c-0.1,0-0.1,0-0.2,0
		C145.2,63.9,145.2,64.1,145.2,64.2z"/>
	<path class="st2" d="M423.3,74.3c4.5,2.5,6.7,6.2,7.9,10.6c1.8,6.5-0.3,12.2-3.2,17.9c-1.9,3.8-4.7,6.7-8.9,7.5
		c-1.4,0.3-3.4,0.1-4.6-0.7c-4.7-3.3-6.2-8.4-6.9-13.7c-1.1-7.3-0.9-14.8,5.9-19.4c4.2-2.8,4.7-6.3,4.7-10.5
		c0-7.6-0.2-15.3-0.2-22.9c0-7.4,0-14.9,0.3-22.3c0.1-2.6,0.9-5.2,1.6-7.7c1.4-4.5,4.4-5.2,8.2-1.9c1.1,5.9,1.5,12,0.6,18.2
		c-1.4,10-2.5,19.9-3.7,29.9C424.4,64.4,423.9,69.2,423.3,74.3z"/>
	<path class="st0" d="M372.1,176.9c-2.1,6.2-4.9,10.9-12.8,9.7c-0.5-3.2-1.1-6.6-1.5-10c-0.4-3.3-0.5-6.6-0.7-9.9
		c-0.3-3.9,2.5-6.4,6.5-5.8c3.8,0.6,6,3.3,7.8,6.8c1.7-4.4,1.8-9.9,7.6-10.5c4.2-0.4,7.7,1.4,9.4,5.8c0-2.4,0-4.8,0-7.5
		c1.8-0.1,3.3-0.2,4.9-0.2c2.4,0,3.7,1.3,4.3,3.7c0.6,2.4,1.4,4.8,2.3,7.8c1.3-4.2,2.3-7.8,3.5-11.3c1-3.1,2.6-3.8,6.2-2.6
		c0.9,8,1.8,16.1,2.7,24.9c-1.5,0.2-3,0.4-4.8,0.7c-0.8-3.7-1.5-6.9-2.2-10.5c-0.8,4-1.4,7.4-2.2,11.1c-5.8,0.7-5.6-4.6-8-8
		c0.4,3.5,0.7,6.4,1,9.4c-0.9,0.5-1.6,0.9-2.4,1.3c-0.9-0.4-1.8-0.7-2.8-1.1c-0.3-1.1-0.6-2.2-1.2-4.4c-0.9,6.6-4.9,8.4-9.9,8.2
		C375.4,184.2,373.4,181,372.1,176.9z M381.1,180.3c0.9-0.9,2-1.6,2.6-2.6c1.9-3.5,0.1-13.4-3-16.5c-4,2.6-3.7,6.7-3.6,10.5
		C377.1,174.9,377,178.3,381.1,180.3z M363.9,181.4c3.2-3.5,4.6-7,4.6-11c0.1-3.7-2.9-5.8-6.2-4.5
		C362.8,170.9,363.3,175.9,363.9,181.4z"/>
	<path class="st3" d="M165.1,204.5c0.9-2.1,1.4-4.4,2.6-6.2c3-4.3,9.6-3.8,12.2,0.8c0.6,1,1,2.1,1.7,3.4c0.3-3.2,0.6-6,0.8-8.6
		c3.4-0.9,5.1,0,6.2,2.4c1.9,4,3.9,7.9,6.3,11.7c-0.4-5.5-0.9-10.9-1.3-16.7c2.1,0,3.8,0,5.7,0c0.6,8.5,1.2,16.7,1.8,24.8
		c-3.2,3.2-6.5,2.9-8.9-0.9c-1.3-2.2-2.6-4.3-4.4-6.2c0.3,3.5,0.5,7,0.8,10.6c-1.6,0.4-2.8,0.6-4.3,0.9c-0.6-2.2-1.1-4.1-1.7-6.3
		c-0.5,4.1-2,7.1-6.3,8.1c-4.2,0.9-7.4-0.1-9.5-3.3c-1.5,1.8-2.7,4.1-4.6,5.1c-1.9,1.1-4.5,1.5-6.6,1.2c-3.9-0.6-5.7-4.5-4.5-9.1
		c1.2,0.2,2.4,0.3,3.5,0.5c0.9,1.6,1.6,2.9,2.8,5c1.2-1.6,2.6-2.6,2.5-3.6c-0.1-1.3-1.2-2.6-2.1-3.6c-0.5-0.5-1.6-0.5-2.4-0.6
		c-4.7-1-7.1-5-5.8-9.5c1.3-4.4,6.4-7.4,10.4-6.1c2.9,1,3.9,3.3,4.3,6.1c-0.2,1.2-0.3,2.5-0.5,3.9c-1.4-0.2-2.4-0.3-3.3-0.4
		c-0.6-2-1.1-3.7-1.6-5.6c-3.2,1.6-3.6,3.8-3,6.7c2.8,1.4,5.8,2.8,9.1,4.4C165.1,210.3,165.1,207.4,165.1,204.5z M174,199.2
		c-1,1-2.2,1.7-2.6,2.7c-1.9,4.5-2,9.2-0.3,13.8c0.4,1.1,2,2.4,3,2.3c1.1-0.1,2.7-1.5,2.9-2.5C177.9,210,177.5,204.6,174,199.2z"/>
	<path class="st3" d="M104.1,235.5c-2,0.1-3.2,0.2-5.1,0.4c-1.8-5.3-3.6-10.7-5.5-16.2c-0.2,0-0.4,0.1-0.7,0.1
		c0.6,5.4,1.2,10.9,1.8,16.2c-2.7,1.9-3.9,1.7-4.8-0.1c-4.3,1.6-8.6,3.2-13.2,4.9c-0.7-1.2-1.7-2.2-1.8-3.2
		c-0.6-7.8-1.1-15.6-1.7-23.8c2.1-0.2,3.7-0.3,5.6-0.4c0.5,7,0.9,13.7,1.3,20.6c2.9-0.9,5.5-1.7,8.2-2.6c-0.5-6.5-0.9-13.1-1.4-19.4
		c3.8-0.6,6.9-1,9.9-1.4c1.2,3.9,2.3,7.4,3.6,11.4c1.2-5.2,2.3-9.8,3.4-14.7c1.5,0.3,2.6,0.5,4.2,0.8
		C106.7,217.2,105.4,226.4,104.1,235.5z"/>
	<path class="st3" d="M225.9,212.8c-0.9-2.9-1.7-5.5-2.5-8.3c-1.7,6-4.7,10.5-12.4,9.8c-2-7.4-2.2-15.3-2.7-22.8
		c4.5-5,9.7-3.8,14.1,3c1.1-2.5-1.3-6.3,2.5-7.6c2.7-1,5.5-1.8,8.4-2.3c2.1-0.3,3.6,0.8,3.6,3.2c-1.6,0.5-3.2,0.8-4.7,1.3
		c-1.4,0.5-2.8,1-4.3,1.5c0,2.1,0,4.2,0,6.2c2.2-0.5,4.3-0.9,6.6-1.4c0.3,1.3,0.5,2.1,0.8,3.1c-2.4,1-4.6,1.8-6.9,2.8
		c0.4,2,0.7,3.9,1,5.7c2.9-0.5,5.5-0.9,8.2-1.4c0.4,1.2,0.6,1.9,0.9,3.1C234.5,210,230.5,211.3,225.9,212.8z M213.7,193.2
		c0.5,5.2,1,10.2,1.5,15.7c3.2-3.4,4.6-7,4.6-11.1C219.8,194.3,217.7,192.7,213.7,193.2z"/>
	<path class="st4" d="M439.9,145.9c1.6-0.2,3.1-0.4,5-0.7c0.5,7.1,1,13.8,1.4,20.8c2.8-0.9,5.3-1.6,8-2.5c-0.3-5.9-0.7-11.9-1-18.1
		c3.8-2.2,7.5-4,11.8-3.4c1.1,0.1,2,1.6,3.2,2.7c-3.7,1.2-6.6,2.1-9.6,3.1c0,2.1,0,4.1,0,6c2.5,0.9,5.7-3.2,7.7,1.8
		c-2.4,1-4.6,2-7.2,3.1c0.3,1.9,0.6,3.8,0.8,5.6c2.8-0.5,5.5-0.9,8.5-1.4c0.3,1.4,0.4,2.2,0.6,3.2c-4,1.3-7.8,2.5-11.9,3.8
		c-0.5-0.5-1-1.1-1.4-1.5c-4.2,1.5-8.5,3-13.2,4.6c-0.6-1.2-1.5-2.3-1.6-3.4c-0.6-7.2-1-14.5-1.4-21.7
		C439.6,147.3,439.8,146.7,439.9,145.9z"/>
	<path class="st5" d="M143.8,228.7c-2-0.8-3.8-0.9-4.5-1.9c-0.9-1.2-0.8-3-1.2-4.9c-1.6,0.6-3,1.1-4.4,1.6c-0.3,1.9-0.5,3.6-0.8,5.5
		c-1,0.1-2,0.3-3,0.4c-0.5-2.6-1-5-1.5-8c0.2-0.2,0.9-1,1.4-1.5c1.4-6.4,1.5-13.1,6.3-17.8c5.6,0.5,4.7,5.3,6.7,8.2c0-3,0-6.1,0-9.3
		c1.6,0.3,3,0.5,4.6,0.8c0.9,8,1.8,16,2.7,24.1c-0.8,0.5-1.5,0.9-2.8,1.6c-1.2-1.4-2.3-2.7-3.6-4.1
		C143.8,224.8,143.8,226.2,143.8,228.7z M134.3,218.3c1.5-0.6,2.4-0.9,3.5-1.3c-0.4-2.3-0.7-4.6-1-6.8c-0.2,0-0.5,0-0.7,0
		C135.5,212.7,135,215.1,134.3,218.3z"/>
	<path class="st4" d="M432.3,147.4c2.1,0.3,3.4,0.4,4.7,0.6c0.2,0.5,0.5,0.9,0.6,1.3c0.8,7.6,1.6,15.2,2.5,23.4
		c-1.5,0.2-3,0.4-4.3,0.6c-0.7-1.5-1.2-2.5-1.8-3.8c-1.5,3.1-3,5.6-6.9,5.5c-3.2-0.1-5.4-1.5-6.9-4.1c-2.8-5-2.1-14.2,1.6-18.5
		c1-1.1,2.5-1.8,4-2.4c1.1-0.5,2.4-0.7,4.3-1.2c3.3,2.3,0.2,6,1.6,9.1c-1.3,0.1-2.2,0.1-3.5,0.2c-0.5-1.3-1-2.5-1.6-4
		c-2.7,4.2-3.9,8.6-2.4,13.4c0.3,1,2,2.4,2.9,2.2c1-0.1,2.2-1.6,2.6-2.8c0.4-1.4,0.1-3.1,0.1-5.1c1.4,0.6,2.2,1.1,3.4,1.6
		C432.9,158,432.6,152.9,432.3,147.4z"/>
	<path class="st0" d="M116.6,232.9c-1.7,0.1-3.1,0.2-4.7,0.3c-2.6-8.7-2.4-17.1-3-25.3c7-2.6,13.3-1.8,16.1,1.8
		c2.9,3.7,2.4,7.1-2.1,13.5c1.6,1.7,3.2,3.5,4.8,5.2c-1.8,3.3-3.9,3.7-6.6,1.2c-0.9-0.8-1.6-1.9-2.5-2.7c-0.6-0.5-1.4-0.8-2.7-1.4
		C116.2,228.2,116.4,230.1,116.6,232.9z M122.3,215.3c-1.3-3.4-4.2-5-8-4.3c0.3,3.1,0.6,6.3,1,9.6
		C118.7,219.9,121.1,218.5,122.3,215.3z"/>
	<path class="st5" d="M259.1,198.1c0.8,0.9,1.5,1.9,2.4,2.7c0.9,0.9,1.9,1.6,2.7,2.3c-2.5,3.7-4.3,3.9-7.1,1.3
		c-0.8-0.8-1.4-1.8-2.3-2.5c-0.6-0.5-1.4-0.8-2.7-1.4c0.1,2.6,0.2,4.5,0.3,6.7c-0.6,0.4-1.3,0.8-2.1,1.3c-0.8-0.3-1.6-0.6-2.5-0.9
		c-2.7-8.1-2.2-16.5-3-24.7c7.2-2.5,13.4-1.8,16.2,1.8C264.1,188.3,263.6,191.3,259.1,198.1z M251.2,195.2c4.1-0.6,7.2-3.2,6.9-5.7
		c-0.3-2.4-3.5-4.1-7.8-3.9C250.6,188.8,250.9,191.9,251.2,195.2z"/>
	<path class="st6" d="M312.1,177.7c-0.1-5.3,3.3-9.5,7.8-9.7c5.6-0.2,8.8,4.7,6.3,10c-0.8,0-1.7,0-2.9,0c-0.5-1.8-1-3.7-1.6-5.7
		c-3.2,1.4-3.5,3.7-2.9,6.8c1.4,0.6,3,1.4,4.7,2c3.9,1.6,5.8,4.4,5.3,8c-0.4,3.2-4.3,6.3-8.2,6.7c-3.3,0.3-5.9-1.8-7.1-5.6
		c-0.1-0.2-0.3-0.4-0.5-0.6c-0.1-0.6-0.3-1.2-0.4-1.8c0.6-0.5,1.3-1.1,2-1.7c1.1,0.3,2.2,0.6,3.2,0.9c0.7,1.4,1.3,2.6,1.9,3.8
		c2.3-0.1,3.2-1.2,3.2-3.1c0-2.2-1.3-3.5-3.4-3.8C315.3,183.5,312.6,181.9,312.1,177.7z"/>
	<path class="st3" d="M278,176.6c8.3-3.4,15.2-1.8,17.4,3.6c2.4,5.9-0.9,10.9-10,14.8c0.1,1.9,0.2,3.9,0.3,5.7
		c-3.2,1.9-5,1.3-5.6-2.5C279.1,191,278.7,183.7,278,176.6z M284.6,189c4.5-1,7.3-3.7,6.8-6.2c-0.5-2.3-4.2-4-7.9-3.6
		C283.9,182.5,284.2,185.8,284.6,189z"/>
	<path class="st3" d="M337.2,181.5c0.9-8.4,2.8-14.2,5.9-17.4c2.7-0.5,4.6,0.6,5.1,3.4c1.3,7.2,2.3,14.4,3.5,22c-2.2,0-3.6,0-5.1,0
		c-0.4-2.1-0.8-3.8-1.2-5.8c-1.6,0.6-3.1,1.1-4.4,1.6c-0.3,1.9-0.5,3.6-0.8,5.4c-1,0.2-2,0.3-3,0.5c-0.5-2.7-1-5.1-1.5-8
		C335.9,182.9,336.5,182.2,337.2,181.5z M343.9,171.8c-0.2,0-0.5,0-0.7-0.1c-0.5,2.5-1.1,5.1-1.7,8.1c1.5-0.6,2.4-0.9,3.5-1.3
		C344.6,176.2,344.3,174,343.9,171.8z"/>
	<path class="st0" d="M312.4,187.8c0.1,0.6,0.3,1.2,0.4,1.8c0,2.2,0,4.3,0,6.9c-1.4,0-2.8,0-4.2,0c-0.4-2.1-0.7-3.8-1.1-5.8
		c-1.5,0.5-2.9,1-4.5,1.6c-0.2,1.7-0.4,3.4-0.6,5.4c-1,0.2-2.1,0.4-3.3,0.6c-0.5-2.7-0.9-5.1-1.3-7.6c0.1,0.1,0.3,0.1,0.4,0.2
		c0.7-3,1.3-6,2.1-8.9c1-4,1.7-8.1,4.9-10.9c2.9-0.2,4.3,1.2,5,3.5c0.3,1.1,0.6,2.2,0.9,3.3C311.7,181.1,312.1,184.4,312.4,187.8z
		 M303.6,187c1.6-0.6,2.6-1,3.7-1.5c-0.4-2.5-0.8-4.7-1.2-7c-0.2,0-0.4,0-0.6,0C304.9,181.2,304.3,183.8,303.6,187z"/>
	<path class="st7" d="M30.7,150.5c0.8,2,1.7,4,2.5,5.9c-0.1,0.5-0.4,1.1-0.2,1.4c0.2,0.3,0.9,0.2,1.4,0.3c-0.2,0.3-0.8,0.8-0.7,0.9
		c1.1,1.4,2.3,2.8,3.5,4.2c-0.1,0-0.2,0-0.3,0c-0.1,0-0.1,0.1-0.2,0.1c1.5,2.1,2.8,4.4,4.5,6.4C51,181,62.9,189,77.5,193
		c1.3,0.3,2.7,0.6,4,0.9c0.3,0.1,0.5,0.2,0.8,0.3c0.6,0,1.2,0,1.7,0c0,0,0.2,0.2,0.2,0.2c1.4,0.4,2.7,0.9,4.1,1.3
		c-3.8,1.1-7.4,2-11.3,0.3c-3.9-1.7-8-2.6-12-4.1c-2.1-0.8-4.1-2.1-6-3.5c-4.3-3.1-8.5-6.4-13.1-9.9c-3.1,0.5-4.4-2.3-5.8-4.7
		c-1.7-2.7-2.8-5.7-4.3-8.6c-0.5-0.9-1.3-1.5-2-2.3c-1-1.1-2.1-2-3-3.2c-1.5-1.9-2.9-4-4.5-6.3c0.4-1.7,0.8-3.7,1.2-5.5
		c0.9,0,1.6,0,2.4,0c0.2,0.4,0.3,0.8,0.5,1.2c-0.4-0.1-0.8-0.2-1.2-0.3c-0.1,0.3-0.2,0.6-0.3,0.9C29.5,150.1,30.1,150.3,30.7,150.5z
		"/>
	<path class="st8" d="M268.6,189.3c2.1-0.5,3.7-1,5.7-1.5c0.6,0.7,1.3,1.5,2.3,2.8c-2.8,1.2-5,2.1-7.5,3.1c0.3,2,0.6,3.9,0.9,5.9
		c8.2-2.2,8.7-2.1,8.8,1.6c-3.8,1.2-7.7,2.5-11.6,3.7c-2.9-3.1-4.4-13.6-3.6-24.6c3.3-2,7-3.7,11.2-3.2c1.1,0.1,2.1,1.5,3.6,2.7
		c-3.8,1.2-6.8,2.1-9.8,3.1C268.6,185.1,268.6,187.1,268.6,189.3z"/>
	<path class="st9" d="M24.8,134c-1.8,2.1-2.5,4.3-0.9,6.8c-0.1,0.8-0.2,1.7-0.3,2.5c-3.3-7.1-4.1-14.4-1.4-22.6
		c-0.1-0.2-0.4-1.2-0.9-2.8c-0.6,1.9-1,3.1-1.4,4.3c-0.3,0-0.5-0.1-0.8-0.1c0.9-6.3,1.7-12.6,2.6-18.9c0.1,0,0.2,0,0.3,0
		c0,0.3,0,0.7,0,1c0,0.1,0.3,0.2,0.8,0.7c0.5-0.9,1.2-1.6,1.4-2.4c1.7-4.9,3-10,5.1-14.8c1.3-2.9,3.7-5.2,5.6-7.8
		c-0.1,0.7,0.1,1.5-0.2,2c-8.1,13-11.7,27.2-11.2,42.5C23.6,127.6,24.3,130.8,24.8,134z"/>
	<path class="st10" d="M419.1,176.6c-1.7,0.2-3.1,0.3-4.3,0.5c-2.3-5.2-4.1-22.9-2.6-25.7c1.2,0.2,2.4,0.3,4.2,0.6
		C417.2,159.8,418.1,167.8,419.1,176.6z"/>
	<path class="st11" d="M51.9,64c-0.1,0.1-0.1,0.2-0.2,0.3c-0.5,0-1.2-0.2-1.5,0c-1.3,1.1-2.5,2.3-3.7,3.4c-0.6,0.6-1.3,1.3-1.9,1.9
		c-0.5,0.4-0.9,0.8-1.4,1.2c-0.1-0.1-0.2-0.2-0.3-0.4c1.6-3.6,4.3-6.3,7.2-8.8c2.7-2.4,5.6-4.7,8.7-6.7c2.6-1.6,5.6-2.7,8.5-4.1
		c1.3,1.7-0.1,2.4-1.3,3.2c-1.3,0.9-2.5,1.9-3.7,2.8c0,0,0,0,0,0c-0.3,0.2-0.6,0.4-0.9,0.6l-0.3,0c0,0-0.3,0-0.3,0
		c-2.2,1.5-4.4,3-6.5,4.5c0,0,0,0,0,0C52.5,61.9,51.9,62.4,51.9,64z"/>
	<path class="st12" d="M171.2,126.3c0-2.8-0.2-5.6,0-8.4c0.1-1.3-0.2-3.2,2.1-3.2c0.5,2,1,3.9,1.6,6.1c-1.7,4.8-1,10.5-3.3,15.4
		c0-2.8,0-5.6,0-8.4C171.4,127.3,171.3,126.8,171.2,126.3z"/>
	<path class="st12" d="M116.6,196.9c-0.1-1-0.2-2-0.3-3c1.3-0.4,2.7-0.9,4-1.3c3.1-1,6.2-2,9.3-3c-1.4,1.2-2.7,2.4-4.1,3.5
		c-1.9,1.6-3.9,3.1-6.7,2.8C118.1,195.8,117.3,196.6,116.6,196.9z"/>
	<path class="st13" d="M391.6,79.6c-0.5,0-1.1-0.1-1.6-0.1c0.1-0.4,0.1-0.7,0.2-1.1c0.2-0.7,0.4-1.5,0.6-2.2
		c0.2-1.1,0.4-2.2,0.7-3.5c1-0.4,2.1-0.9,3.5-1.5c-0.3,1.3-0.6,2-0.8,2.8c0,0,0-0.1,0-0.1c-0.5,0.3-1.2,0.6-1.4,1
		C392.2,76.4,392,78,391.6,79.6z"/>
	<path class="st9" d="M347.6,161.4c-0.5,0.8-0.9,1.4-1.5,2.4c-1.6-1-3-2-4.8-3.1C344.2,158.5,345.6,160.6,347.6,161.4z"/>
	<path class="st11" d="M150.9,174.3c0.7-0.7,1.3-1.3,2-2c0.2-0.2,0.3-0.4,0.5-0.6c0.4,0.3,0.8,0.6,1.2,0.9c-2.2,1.9-4.3,3.7-6.5,5.6
		c-0.2-0.2-0.4-0.4-0.6-0.6c0-0.6,0-1.2,0-1.7c0.2-0.1,0.3-0.3,0.5-0.4C149,175,150,174.7,150.9,174.3z"/>
	<path class="st14" d="M154.6,172.6c-0.4-0.3-0.8-0.6-1.2-0.9c0-0.2,0.1-0.4,0.1-0.7c0.2-0.2,0.4-0.4,0.6-0.7
		c0.3-0.3,0.6-0.7,1.1-1.2c-0.5-0.1-0.8-0.2-1.1-0.3c1.4-0.7,2.8-1.5,4.2-2.2C157,168.6,155.8,170.6,154.6,172.6z"/>
	<path class="st12" d="M111.5,198c0.8-0.3,1.5-0.5,2.2-0.7c-0.3-0.4-0.7-0.8-1.3-1.6c1.8-0.3,3.4-1.6,3.6,1.3
		C114.7,198.1,113.4,199.4,111.5,198z"/>
	<path class="st1" d="M95.6,196c2.9,0,5.9,0,8.8,0c0,0.3,0.1,0.6,0.1,0.9c-1.2,0.1-2.3,0.1-3.5,0.2c-1-0.1-2.1-0.1-3.1-0.2
		c-0.8,0-1.5,0-2.3-0.1C95.6,196.6,95.6,196.3,95.6,196z"/>
	<path class="st11" d="M39.4,74.4c1-1.1,1.9-2.3,2.9-3.4c0.1,0.1,0.3,0.2,0.4,0.4c-0.5,1-1,2.1-1.5,3.1c0,0,0,0,0,0
		c-0.5,0.1-0.9,0.2-1.4,0.3C39.6,74.6,39.5,74.5,39.4,74.4z"/>
	<path class="st12" d="M97.9,197c1,0.1,2.1,0.1,3.1,0.2C99.9,198.3,98.9,198.5,97.9,197z"/>
	<path class="st12" d="M95.6,196c0,0.3,0,0.6,0,0.9c-1.1-0.1-2.2-0.2-3.3-0.4l0,0C93.4,196.4,94.5,196.2,95.6,196z"/>
	<path class="st0" d="M390.7,76.2c-0.2,0.7-0.4,1.5-0.6,2.2C390.3,77.6,390.5,76.9,390.7,76.2z"/>
	<path class="st11" d="M36,78.2c-0.4,0.3-0.8,0.6-1.2,0.8c0.4-0.5,0.8-1,1.2-1.6C36,77.7,36,77.9,36,78.2z"/>
	<path class="st14" d="M158.4,166.5c-0.1-0.3-0.3-0.7-0.4-1c0.2-0.3,0.4-0.5,0.6-0.8c0.2-0.1,0.3-0.1,0.5-0.2
		c0.1,0.1,0.3,0.3,0.4,0.4C159.1,165.5,158.8,166,158.4,166.5z"/>
	<path class="st12" d="M106.3,197c0.7,0,1.5,0,2.2,0c0,0.1,0,0.2,0,0.4c-0.5,0.1-1,0.1-1.5,0.2C106.8,197.4,106.6,197.2,106.3,197z"
		/>
	<path class="st11" d="M39.2,75.6c-0.1-0.2-0.2-0.4-0.4-0.7c0.2-0.2,0.3-0.4,0.5-0.6c0.1,0.1,0.3,0.3,0.4,0.4
		C39.6,75,39.4,75.3,39.2,75.6z"/>
	<path class="st7" d="M131.4,188.4c0.2-0.1,0.4-0.3,0.6-0.4c0,0.2,0,0.3,0,0.5C131.7,188.5,131.5,188.5,131.4,188.4z"/>
	<path class="st11" d="M34.9,78.9c0,0.3,0,0.5,0,0.8c-0.2-0.1-0.4-0.2-0.7-0.4C34.5,79.1,34.7,79,34.9,78.9z"/>
	<path class="st14" d="M159.1,164.6c0.1-0.2,0.3-0.4,0.8-1.2c-0.3,1-0.3,1.3-0.4,1.5C159.3,164.8,159.2,164.7,159.1,164.6z"/>
	<path class="st11" d="M42.2,71c0.2-0.2,0.4-0.4,0.6-0.6c0.1,0.1,0.2,0.2,0.3,0.4c-0.2,0.2-0.3,0.4-0.5,0.6
		C42.5,71.2,42.4,71.1,42.2,71z"/>
	<path class="st11" d="M251.6,128.9c0.4-1.3,0.7-2.7,1.1-4c0.4-0.2,0.8-0.3,1.8-0.6C253.6,126.2,254.4,128.6,251.6,128.9z"/>
	<path class="st11" d="M251.2,130.1c0.1-0.2,0.2-0.4,0.3-0.6c0.3,0.1,0.6,0.1,1,0.2c0,0.1,0,0.3,0,0.4
		C252,130.1,251.6,130.1,251.2,130.1z"/>
	<polygon class="st15" points="297.7,129.4 297.7,129.5 297.7,129.3 	"/>
	<path class="st16" d="M225.5,95.4C225.4,95.5,225.3,95.7,225.5,95.4C225.2,95.6,225.4,95.5,225.5,95.4
		C225.6,95.4,225.5,95.4,225.5,95.4z"/>
	<path class="st9" d="M162,157.3c0.8-1.9,1.7-3.7,2.5-5.6c0.3,0.1,0.5,0.2,0.8,0.4c-0.2,2.1-0.6,4-2.8,5.2
		C162.3,157.3,162.2,157.3,162,157.3z"/>
	<path class="st11" d="M39.5,76.7c0.2,0,0.3,0,0.5,0c-0.3,0.7-0.7,1.4-1,2.1c-0.2-0.1-0.5-0.3-0.7-0.4
		C38.7,77.8,39.1,77.2,39.5,76.7z"/>
	<path class="st12" d="M113.3,193.1c-0.1,0.2-0.1,0.4-0.2,0.6c-0.3,0-0.6,0.1-0.9,0.1c0-0.2,0-0.3,0-0.5
		C112.6,193.2,112.9,193.2,113.3,193.1z"/>
	<path class="st7" d="M137.7,183.3c-0.2,0.3-0.3,0.7-0.5,1c-0.1-0.1-0.3-0.2-0.4-0.3C137,183.8,137.4,183.5,137.7,183.3L137.7,183.3
		z"/>
	<path class="st9" d="M166.5,150c-0.1,0.3-0.2,0.6-0.4,0.9c-0.1,0-0.3-0.1-0.4-0.1c0.1-0.3,0.2-0.6,0.2-0.9c0.2,0,0.4-0.1,0.6-0.1
		L166.5,150z"/>
	<path class="st9" d="M167.1,150c0.1,0.1,0.3,0.3,0.4,0.4C167.4,150.3,167.2,150.2,167.1,150z"/>
	<path class="st16" d="M137.7,183.3C137.8,183.2,137.9,183,137.7,183.3C137.9,183.2,137.8,183.2,137.7,183.3
		C137.7,183.3,137.7,183.3,137.7,183.3z"/>
	<path class="st16" d="M169.9,105.1c0.2,0.1,0.4,0.3,0.6,0.4C170.3,105.4,170.1,105.2,169.9,105.1z"/>
	<path class="st16" d="M133.7,56.1c-0.3,0.1-0.6,0.3-0.9,0.4C133.1,56.4,133.4,56.3,133.7,56.1z"/>
	<path class="st0" d="M248.8,106.2c0.2-0.4,0.4-0.8,0.6-1.2C249.2,105.4,249,105.8,248.8,106.2z"/>
	<path class="st0" d="M247.7,108c0.2-0.4,0.4-0.8,0.6-1.2C248.1,107.1,247.9,107.5,247.7,108z"/>
	<path class="st0" d="M247.1,109.1c0.2-0.4,0.4-0.8,0.6-1.2C247.5,108.3,247.3,108.7,247.1,109.1z"/>
	<path class="st0" d="M246.5,110.2c0.2-0.4,0.4-0.8,0.6-1.2C246.9,109.4,246.7,109.8,246.5,110.2z"/>
	<path class="st0" d="M248.2,106.8c0.2-0.2,0.4-0.4,0.6-0.6c-0.1,0.2-0.1,0.5-0.2,0.7C248.5,106.9,248.4,106.8,248.2,106.8z"/>
	<path class="st0" d="M249.3,105.1c0.2-0.2,0.4-0.4,0.6-0.6C249.8,104.7,249.6,104.9,249.3,105.1z"/>
	<path class="st5" d="M98.4,118.8c-3.7,9.9-7.1,19.4-10.9,28.6c-1.5,3.6-3.8,7-6.1,10.2c-5.1,7.1-12.2,10.5-20.9,9.1
		c-9.1-1.5-14.9-7.2-17.4-15.9c-2.7-9.3-2.2-18.3,4.6-26c2.7-3,6.2-4.6,10.1-5.3c4.9-0.9,9.9,2.8,11,8c0.2,0.7,0.3,1.4,0.6,2.5
		c6.7-8.2,14.6-13.9,25.2-15.5c0.9-5,2.1-9.9,2.6-14.9c0.8-9.8,1.2-19.7,1.8-29.6c0.1-1.4-0.2-2.8-0.3-4.2c-0.4-4,1.2-5.9,5.2-6
		c3.4-0.1,6.2,1.3,7.2,4.5c1.8,5.3,3.4,10.8,4.2,16.3c1.6,9.9,2.6,20,3.8,30.1c7.3-2.7,9.8-9.2,12.5-16c0.9,0.6,1.5,0.9,2.1,1.3
		c-1.9,8.5-6.1,15-14.5,18.7c1.2,4.6,2.2,9.3,3.8,13.8c2.4,6.8,4.8,13.7,9.8,19.2c5.8,6.4,11.5,6.8,18.4,1.4
		c0.8-0.6,1.8-1.1,2.7-1.7c2.1,2.2,1.1,3.6-0.4,4.8c-11.6,9.8-22.9,9.3-32.5-3.6c-6.1-8.2-9.3-17.6-11.6-27.4
		c-0.3-1.1-0.5-2.2-0.8-3.3C104.8,118.2,101.3,118.5,98.4,118.8z M64.4,140.6c0.5-1.3,0.9-2.1,1-3c0.3-2.3,0.8-4.6,0.8-6.9
		c0-2.7-1.7-4.3-4.2-5c-2.5-0.7-4.2,0.7-5.5,2.5c-4.3,5.8-6.3,20.7,1.5,28.4c4.3,4.3,9.5,5.1,14.5,1.5c1.9-1.4,3.7-3.3,5.2-5.2
		c5-6.5,8.4-14,11.3-21.7c1.1-2.8,2-5.7,3.2-9c-12.9,0.6-19.6,8.5-24.7,18.5C66.4,140.8,65.7,140.7,64.4,140.6z M108.1,114
		c-1.6-11.5-3.1-22.8-4.7-34.6c-1.6,12.1-3,23.5-4.6,35.2C101.8,114.4,104.8,114.2,108.1,114z"/>
</g>
<g>
</g>
<g>
</g>
<g>
</g>
<g>
</g>
<g>
</g>
<g>
</g>
</svg>
